<svg width="48" height="48" xmlns="http://www.w3.org/2000/svg">

 <g>
  <title>background</title>
  <rect fill="none" id="canvas_background" height="402" width="582" y="-1" x="-1"/>
 </g>
 <g>
  <title>Layer 1</title>
  <path fill="#ffffff" id="svg_1" fill-rule="evenodd" d="m43.086954,35l-13.805,0c0.595,3.301 2.573,5.572 4.401,7l2.404,0c0.553,0 1,0.447 1,1s-0.447,1 -1,1l-24,0c-0.553,0 -1,-0.447 -1,-1s0.447,-1 1,-1l2.403,0c1.827,-1.428 3.807,-3.699 4.401,-7l-13.804,0c-2.209,0 -4,-1.791 -4,-4l0,-23c0,-2.209 1.791,-4 4,-4l38,0c2.209,0 4,1.791 4,4l0,23c0,2.209 -1.791,4 -4,4zm-25.603,7l13.205,0c-1.595,-1.682 -3.015,-3.976 -3.459,-7l-6.287,0c-0.444,3.024 -1.864,5.318 -3.459,7zm27.603,-34c0,-1.104 -0.896,-2 -2,-2l-38,0c-1.104,0 -2,0.896 -2,2l0,19l0,0l42,0l0,-19zm0,21l-42,0l0,0l0,2c0,1.104 0.896,2 2,2l14,0l0,0l10,0l0,0l14,0c1.104,0 2,-0.896 2,-2l0,-2zm-21,3c-0.553,0 -1,-0.447 -1,-1s0.447,-1 1,-1s1,0.447 1,1s-0.447,1 -1,1z" clip-rule="evenodd"/>
 </g>
</svg>