<svg width="60" height="60" xmlns="http://www.w3.org/2000/svg">
 <title/>
 <desc/>

 <g>
  <title>background</title>
  <rect fill="none" id="canvas_background" height="402" width="582" y="-1" x="-1"/>
 </g>
 <g>
  <title>Layer 1</title>
  <path fill="#ffffff" id="Fill-12" d="m31.389,41.293c-0.391,-0.391 -1.024,-0.391 -1.414,0l-3,3c-0.287,0.286 -0.372,0.716 -0.217,1.09c0.155,0.374 0.519,0.617 0.924,0.617l6,0c0.404,0 0.769,-0.243 0.923,-0.617c0.155,-0.374 0.07,-0.804 -0.216,-1.09l-3,-3l0,0zm-1.293,2.707l0.586,-0.586l0.586,0.586l-1.172,0l0,0z"/>
  <path fill="#bf00bf" id="Fill-13" d="m52.101609,22.038c1.072,-1.491 1.455,-3.398 0.952,-5.348c-0.569,-2.202 -2.077,-3.847 -3.955,-4.445c0.672,-1.81 0.335,-3.68 -0.985,-5.115c-1.624,-1.766 -4.178,-2.346 -6.585,-1.609c-0.495,-3.284 -3.282,-5.258 -6.028,-5.498c-1.829,-0.154 -3.759,0.469 -4.908,2.093c-1.15,-1.625 -3.082,-2.247 -4.909,-2.093c-2.746,0.24 -5.533,2.214 -6.028,5.498c-2.406,-0.737 -4.96,-0.157 -6.584,1.609c-1.321,1.435 -1.658,3.305 -0.986,5.115c-1.878,0.598 -3.386,2.243 -3.954,4.445c-0.529,2.049 -0.083,4.051 1.118,5.572c-0.205,0.183 -0.339,0.442 -0.339,0.738l0,20c0,3.974 2.272,6.562 6,6.949l0,4.051c0,3.421 2.442,6 5.682,6l20,0c3.424,0 6.318,-2.748 6.318,-6l0,-4.052c3.126,-0.325 6,-2.201 6,-5.948l0,-21c0,-0.485 -0.352,-0.87 -0.809,-0.962l0,0zm-16.775,-20.023c2.209,0.193 4.456,1.984 4.268,4.922c-0.024,0.364 0.154,0.712 0.462,0.908c0.308,0.195 0.699,0.208 1.019,0.03c2.281,-1.261 4.484,-0.567 5.566,0.608c1.017,1.106 1.06,2.55 0.119,3.962c-0.203,0.304 -0.224,0.695 -0.054,1.019c0.169,0.324 0.502,0.529 0.868,0.536c1.887,0.034 3.139,1.626 3.542,3.19c0.396,1.535 0.098,3.572 -1.833,4.81l-17.373,0l0,-17c0,-0.21 -0.079,-0.394 -0.19,-0.554c0.51,-1.956 2.141,-2.556 3.606,-2.431l0,0zm-25.259,15.175c0.403,-1.564 1.655,-3.156 3.543,-3.19c0.365,-0.007 0.698,-0.212 0.867,-0.536c0.17,-0.324 0.149,-0.715 -0.053,-1.019c-0.942,-1.412 -0.899,-2.856 0.118,-3.962c1.083,-1.175 3.287,-1.869 5.566,-0.608c0.318,0.177 0.709,0.165 1.019,-0.03c0.308,-0.196 0.486,-0.544 0.463,-0.908c-0.188,-2.938 2.058,-4.729 4.267,-4.922c1.633,-0.136 3.463,0.595 3.741,3.095c0.027,0.245 0.144,0.458 0.312,0.616l0,16.274l-18.01,0c-1.931,-1.238 -2.229,-3.275 -1.833,-4.81l0,0zm40.843,26.81c0,2.952 -2.693,4 -5,4c-0.552,0 -1,0.447 -1,1l0,5c0,2.131 -2.018,4 -4.318,4l-0.682,0l0,-7c0,-0.553 -0.448,-1 -1,-1c-0.552,0 -1,0.447 -1,1l0,7l-6,0l0,-7c0,-0.553 -0.448,-1 -1,-1c-0.552,0 -1,0.447 -1,1l0,7l-6,0l0,-7c0,-0.553 -0.448,-1 -1,-1c-0.552,0 -1,0.447 -1,1l0,7l-1.318,0c-2.134,0 -3.682,-1.683 -3.682,-4l0,-5c0,-0.553 -0.448,-1 -1,-1c-3.178,0 -5,-1.822 -5,-5l0,-19l40,0l0,20l0,0z"/>
  <path fill="#ffffff" id="Fill-14" d="m19.682,28c-3.86,0 -7,3.141 -7,7c0,3.859 3.14,7 7,7c3.86,0 7,-3.141 7,-7c0,-3.859 -3.14,-7 -7,-7l0,0zm0,12c-2.757,0 -5,-2.243 -5,-5c0,-2.757 2.243,-5 5,-5c2.757,0 5,2.243 5,5c0,2.757 -2.243,5 -5,5l0,0z"/>
  <path fill="#ffffff" id="Fill-15" d="m41.592609,28c-3.86,0 -7,3.141 -7,7c0,3.859 3.14,7 7,7c3.859,0 7,-3.141 7,-7c0,-3.859 -3.141,-7 -7,-7l0,0zm0,12c-2.757,0 -5,-2.243 -5,-5c0,-2.757 2.243,-5 5,-5c2.756,0 5,2.243 5,5c0,2.757 -2.244,5 -5,5l0,0z"/>
 </g>
</svg>