<?xml version="1.0" ?><!DOCTYPE svg  PUBLIC '-//W3C//DTD SVG 1.1//EN'  'http://www.w3.org/Graphics/SVG/1.1/DTD/svg11.dtd'><svg enable-background="new 0 0 180 180" id="Layer_1" version="1.1" viewBox="0 0 180 180" xml:space="preserve" xmlns="http://www.w3.org/2000/svg" xmlns:xlink="http://www.w3.org/1999/xlink"><g><path d="M154,95.1c0,25.1-14.5,46.9-35.6,57.4c-0.3,0.2-0.7,0.3-1,0.5c-0.3,0.2-0.7,0.3-1,0.5   c-2.7,1.2-5.5,2.3-8.5,3.1c-1,0.3-2,0.5-3,0.8c-0.3,0.1-0.7,0.2-1,0.2c-0.3,0.1-0.7,0.1-1,0.2c-0.7,0.2-1.5,0.3-2.2,0.4   c-0.3,0.1-0.7,0.1-1,0.2c-0.3,0-0.7,0.1-1,0.1c-1.5,0.2-3,0.4-4.5,0.5c-1.4,0.1-2.9,0.1-4.3,0.1c-1.5,0-2.9-0.1-4.3-0.1   c-1.7-0.1-3.3-0.3-4.9-0.5c-0.3,0-0.7-0.1-1-0.2c-0.3,0-0.7-0.1-1-0.2c-0.6-0.1-1.2-0.2-1.7-0.3c-0.3-0.1-0.7-0.1-1-0.2   c-0.3-0.1-0.7-0.1-1-0.2c-1.1-0.3-2.3-0.6-3.4-0.9c-2.8-0.8-5.4-1.8-8-3c-0.3-0.2-0.7-0.3-1-0.5c-0.3-0.2-0.7-0.3-1-0.5   C40.5,142,26,120.2,26,95.1c0-33.4,25.6-60.8,58.2-63.7c0.4,0,0.8-0.1,1.2-0.1c0.4,0,0.9-0.1,1.4-0.1c1.1-0.1,2.2-0.1,3.3-0.1   c1.4,0,2.8,0,4.2,0.1c0.5,0,0.9,0.1,1.3,0.1c0.4,0,0.8,0.1,1.2,0.1C128.9,34.8,154,62,154,95.1z" fill="#A5D9EB"/><path d="M31.6,121.3c6.1,13.5,16.7,24.6,30,31.1c0.3,0.2,0.7,0.3,1,0.5c0.3,0.2,0.7,0.3,1,0.5c2.6,1.2,5.3,2.2,8,3   c1.1,0.3,2.3,0.6,3.4,0.9c0.3,0.1,0.7,0.2,1,0.2c0.3,0.1,0.7,0.1,1,0.2c0.6,0.1,1.2,0.2,1.7,0.3c0.3,0.1,0.7,0.1,1,0.2   c0.3,0.1,0.7,0.1,1,0.2c1.6,0.2,3.3,0.4,4.9,0.5c1.4,0.1,2.9,0.1,4.3,0.1c1.5,0,2.9-0.1,4.3-0.1c1.5-0.1,3-0.3,4.5-0.5   c0.3,0,0.7-0.1,1-0.1c0.3-0.1,0.7-0.1,1-0.2c0.7-0.1,1.5-0.3,2.2-0.4c0.3-0.1,0.7-0.1,1-0.2c0.3-0.1,0.7-0.1,1-0.2   c1-0.2,2-0.5,3-0.8c2.9-0.8,5.7-1.9,8.5-3.1c0.3-0.2,0.7-0.3,1-0.5c0.3-0.1,0.7-0.3,1-0.5c13.2-6.6,23.9-17.6,30-31.1H31.6z" fill="#93C2CE"/><path d="M90,28.1c-36.9,0-67,30.1-67,67c0,3.6,0.3,7.2,0.8,10.6c0,0.1,0,0.2,0,0.3l0,0.1l0.1,0.3l0.1,0.4   c0,0.2,0.1,0.3,0.1,0.5l0.2,1c1.2,6.2,3.3,12.2,6.3,17.8l0.2,0.5l0.2,0.2c0,0,0.2,0.3,0.2,0.4l0.1,0.3l0.2,0.2   c0.1,0.3,0.3,0.5,0.4,0.7C43.7,149.2,66,162.1,90,162.1c24,0,46.3-12.9,58.1-33.7c0.2-0.3,0.3-0.5,0.5-0.8l0.2-0.2l0.1-0.3   c0.1-0.1,0.3-0.5,0.3-0.5l0.2-0.2l0.1-0.4c1.2-2.3,2.3-4.8,3.3-7.4c0.2-0.7,0.5-1.4,0.7-2c0-0.1,0.2-0.5,0.2-0.5   c0.1-0.3,0.2-0.7,0.3-1l0.2-0.5c0.1-0.3,0.2-0.6,0.3-0.9l0.1-0.4l0-0.1l0.1-0.5c0-0.1,0.1-0.2,0.1-0.3c0-0.1,0.1-0.2,0.1-0.4   c1.4-5.5,2.2-11.2,2.2-17C157,58.2,126.9,28.1,90,28.1z M151.9,111.4c0,0.1,0,0.2-0.1,0.3c0,0.1,0,0.1-0.1,0.2   c-0.1,0.2-0.1,0.3-0.1,0.5c0,0.1-0.1,0.2-0.1,0.3c-0.1,0.3-0.2,0.7-0.3,1c-0.1,0.2-0.1,0.4-0.2,0.6c-0.1,0.3-0.2,0.7-0.3,1   c0,0.1-0.1,0.2-0.1,0.3c-0.2,0.7-0.5,1.3-0.7,2c-0.9,2.5-2,4.9-3.3,7.2c0,0,0,0,0,0c-0.1,0.2-0.2,0.3-0.2,0.5   c-0.1,0.2-0.2,0.3-0.3,0.5c0,0,0,0,0,0c-0.2,0.3-0.4,0.7-0.6,1c-11,19.3-31.8,32.2-55.5,32.2s-44.5-13-55.5-32.2   c-0.2-0.3-0.4-0.7-0.6-1c0,0,0,0,0,0c-0.1-0.2-0.2-0.3-0.3-0.5c-0.1-0.2-0.2-0.3-0.3-0.5c0,0,0,0,0,0c-2.8-5.3-4.9-11.1-6.1-17.1   c-0.1-0.3-0.1-0.7-0.2-1c0-0.2-0.1-0.3-0.1-0.4c0-0.2-0.1-0.3-0.1-0.5c0,0,0,0,0-0.1c0-0.2,0-0.3-0.1-0.4C26.3,102,26,98.6,26,95.1   c0-35.3,28.6-64,64-64c35.3,0,64,28.7,64,64C154,100.7,153.3,106.2,151.9,111.4z" fill="#244964"/><path d="M118.8,77.3c0.3,0,0.5,0,0.8,0.1c0,0,0-0.1,0-0.1c0-2.6,2.1-4.7,4.7-4.7c1,0,1.9,0.3,2.7,0.9   c0.9-2.3,3.2-4,5.9-4c3.5,0,6.3,2.8,6.3,6.3c0,0.6-0.1,1.2-0.3,1.7c0.5-0.2,1-0.3,1.6-0.3c2.6,0,4.7,2.1,4.7,4.7   c0,2.6-2.1,4.7-4.7,4.7h-21.7c-2.6,0-4.7-2.1-4.7-4.7C114.2,79.4,116.3,77.3,118.8,77.3z" fill="#FFFFFF"/><path d="M61.8,66.1c-0.2,0-0.4,0-0.6,0.1c0,0,0,0,0-0.1c0-1.9-1.5-3.4-3.4-3.4c-0.7,0-1.4,0.2-2,0.7   c-0.7-1.7-2.4-2.9-4.3-2.9c-2.6,0-4.7,2.1-4.7,4.7c0,0.4,0.1,0.9,0.2,1.3c-0.4-0.1-0.7-0.2-1.2-0.2c-1.9,0-3.4,1.5-3.4,3.4   c0,1.9,1.5,3.4,3.4,3.4h16c1.9,0,3.4-1.5,3.4-3.4C65.3,67.7,63.7,66.1,61.8,66.1z" fill="#FFFFFF"/><g><g><path d="M79.7,137.3v20.9c-0.3,0-0.7-0.1-1-0.2c-0.6-0.1-1.2-0.2-1.7-0.3c-0.3-0.1-0.7-0.1-1-0.2     c-0.3-0.1-0.7-0.1-1-0.2c-1.1-0.3-2.3-0.6-3.4-0.9v-19.1H79.7z" fill="#D6CEBF"/><path d="M108,137.3v19.2c-1,0.3-2,0.5-3,0.8c-0.3,0.1-0.7,0.2-1,0.2c-0.3,0.1-0.7,0.1-1,0.2     c-0.7,0.2-1.5,0.3-2.2,0.4c-0.3,0.1-0.7,0.1-1,0.2v-21H108z" fill="#D6CEBF"/></g><path d="M104.6,59.5L104.6,59.5l-28.3,0v0c0-5.6,3.3-10.5,8-12.8c1.9-0.9,3.9-1.4,6.1-1.4s4.2,0.5,6.1,1.4    C101.3,49,104.6,53.8,104.6,59.5z" fill="#E5DFCF"/><rect fill="#D6CEBF" height="31.9" width="28.6" x="76" y="59.5"/><path d="M96.5,34.7v12c-1.9-0.9-3.9-1.4-6.1-1.4s-4.2,0.5-6.1,1.4v-12c0-3.4,2.7-6.1,6.1-6.1S96.5,31.3,96.5,34.7z    " fill="#CCC5B4"/><path d="M96.5,35.3v-0.6c0-3.4-2.7-6.1-6.1-6.1s-6.1,2.7-6.1,6.1v0.6H96.5z" fill="#E5DFCF"/><g><rect fill="#E5DFCF" height="11.3" width="7.9" x="64.4" y="98.8"/><path d="M69.7,92.9v-1.2c0-0.7-0.6-1.4-1.4-1.4h0c-0.7,0-1.4,0.6-1.4,1.4v1.2l-2.4,2.8l1.6,2.5v0.6h2.1h2.1v-0.6     l1.6-2.5L69.7,92.9z" fill="#E5DFCF"/></g><g><rect fill="#E5DFCF" height="11.3" width="7.9" x="108" y="98.8"/><path d="M113.3,92.9v-1.2c0-0.7-0.6-1.4-1.4-1.4l0,0c-0.7,0-1.4,0.6-1.4,1.4v1.2l-2.4,2.8l1.6,2.5v0.6h2.1h2.1     v-0.6l1.6-2.5L113.3,92.9z" fill="#E5DFCF"/></g><rect fill="#D6CEBF" height="4.7" width="33.6" x="73.2" y="96"/><rect fill="#E5DFCF" height="4.7" width="31.2" x="74.4" y="91.4"/><rect fill="#E5DFCF" height="4.7" width="35.5" x="72.3" y="100.7"/><rect fill="#D6CEBF" height="4.7" width="35.5" x="72.3" y="105.4"/><rect fill="#AFA594" height="9" width="13.4" x="62.6" y="110.1"/><rect fill="#AFA594" height="9" width="13.4" x="104" y="110.1"/><g><path d="M76,151v6.6c-0.3-0.1-0.7-0.1-1-0.2c-1.1-0.3-2.3-0.6-3.4-0.9c-2.8-0.8-5.4-1.8-8-3     c-0.3-0.2-0.7-0.3-1-0.5v-2H76z" fill="#E5DFCF"/><path d="M117.4,151v2c-0.3,0.2-0.7,0.3-1,0.5c-2.7,1.2-5.5,2.3-8.5,3.1c-1,0.3-2,0.5-3,0.8     c-0.3,0.1-0.7,0.2-1,0.2V151H117.4z" fill="#E5DFCF"/></g><path d="M104,119.1v-9H76v9H63.7V151h16.1v-18.5c0-5.5,4.5-10,10-10h0c5.5,0,10,4.5,10,10V151h16.5v-31.9H104z" fill="#D6CEBF"/><rect fill="#C6BCAB" height="7.3" width="28" x="76" y="110.1"/></g><rect fill="#244964" height="18.5" width="2" x="99.3" y="69"/><rect fill="#244964" height="18.5" width="2" x="89.3" y="69"/><rect fill="#244964" height="18.5" width="2" x="79.2" y="69"/><path d="M116.9,109.1V97.8h-1.4l1.4-2.1l-2.6-3.1v-0.9c0-1.3-1-2.4-2.3-2.4s-2.4,1.1-2.4,2.4v0.9l-2.1,2.5h-0.8   v-4.7h-1.1V60.5h1.7v-2h-1.7c-0.3-5.2-3.4-10-8-12.4V36h0.2v-2h-0.3c-0.1-0.9-0.4-1.8-0.7-2.5c-1-2-3-3.5-5.3-3.8v-5.6h2.1v-2h-2.1   v-2.2h-2v2.2h-2.1v2h2.1v5.6c-2.3,0.3-4.2,1.7-5.3,3.7c-0.4,0.8-0.7,1.7-0.8,2.6h-0.3v2h0.2v10.1c-4.6,2.5-7.7,7.2-8,12.4h-1.8v2   H75v29.9h-1.6V95h-0.6l-2.1-2.5v-0.9c0-1.3-1.1-2.4-2.4-2.4c-1.3,0-2.3,1.1-2.3,2.4v0.9l-2.6,3.1l1.4,2.1h-1.4v11.3h-3.9v2h2.1v9   h1.1V150h-1.1v2.5c0.3,0.2,0.7,0.3,1,0.5c0.3,0.2,0.7,0.3,1,0.5V152H75v5.4c0.3,0.1,0.7,0.2,1,0.2c0.3,0.1,0.7,0.1,1,0.2V152h1.7   v6.2c0.3,0.1,0.7,0.1,1,0.2c0.3,0.1,0.7,0.1,1,0.2v-26c0-5,4-9,9-9c5,0,9,4.1,9,9v26.1c0.3,0,0.7-0.1,1-0.1c0.3-0.1,0.7-0.1,1-0.2   V152h2.2v5.8c0.3-0.1,0.7-0.1,1-0.2c0.3-0.1,0.7-0.1,1-0.2V152h11.4v1.5c0.3-0.2,0.7-0.3,1-0.5c0.3-0.1,0.7-0.3,1-0.5V150h-1.1   v-29.9h1.1v-9h2.1v-2H116.9z M115.3,150h-14.5v-17.5c0-6.1-4.9-11-11-11c-6.1,0-11,5-11,11V150H64.7v-29.9H77V119h26v1.1h12.3V150z    M63.6,111.1H75v7H63.6V111.1z M68,91.6c0-0.2,0.2-0.4,0.3-0.4c0.2,0,0.4,0.2,0.4,0.4v1.6l2.1,2.5l-1.3,2h-2.4l-1.3-2l2.1-2.5V91.6   z M74.2,97h31.6v2.7H74.2V97z M75.4,92.4h29.2V95H75.4V92.4z M86.7,31.2c0.9-1,2.2-1.6,3.7-1.6c1.5,0,2.8,0.6,3.7,1.7   c0.7,0.8,1.1,1.7,1.3,2.8h-10C85.6,32.9,86,31.9,86.7,31.2z M85.3,45.2V36h10.2v9.2c0,0-0.1,0-0.1,0c-0.1,0-0.1,0-0.2,0   c-0.4-0.1-0.9-0.3-1.3-0.4c-0.1,0-0.2,0-0.3-0.1c-0.4-0.1-0.8-0.2-1.3-0.2c-0.1,0-0.2,0-0.3,0c-1-0.1-2.1-0.1-3.1,0   c-0.1,0-0.2,0-0.3,0c-0.4,0.1-0.9,0.1-1.3,0.2c-0.1,0-0.2,0.1-0.3,0.1c-0.5,0.1-0.9,0.2-1.4,0.4c0,0-0.1,0-0.1,0   C85.4,45.2,85.4,45.2,85.3,45.2z M84.8,47.6c2.7-1.3,5.7-1.6,8.5-1c0.5,0.1,1,0.2,1.4,0.4c0.5,0.2,0.9,0.3,1.4,0.6   c4.3,2,7.1,6.3,7.5,10.9H77.3C77.7,53.8,80.5,49.6,84.8,47.6z M103.6,60.5v29.9h-6.8V60.5H103.6z M94.7,60.5v29.9h-8.9V60.5H94.7z    M77,60.5h6.9v29.9H77V60.5z M73.3,101.7h33.5v2.7H73.3V101.7z M111.6,91.6c0-0.2,0.2-0.4,0.4-0.4c0.2,0,0.3,0.2,0.3,0.4v1.6   l2.1,2.5l-1.3,2h-2.4l-1.3-2l2.1-2.5V91.6z M114.9,109.1H109v-9.3h5.9V109.1z M103,111.1v5.9H77v-5.9H103z M73.3,109.1v-2.7h33.5   v2.7H73.3z M65.4,99.8h5.9v9.3h-5.9V99.8z M116.4,118.1H105v-7h11.4V118.1z M107.8,97l0.5,0.8h-0.5V97z M72.2,97.8h-0.3l0.3-0.5   V97.8z" fill="#244964"/><rect fill="#244964" height="2" width="4.7" x="65.8" y="122.2"/><rect fill="#244964" height="2" width="4.7" x="65.8" y="127.1"/><rect fill="#244964" height="2" width="4.7" x="65.8" y="131.9"/><rect fill="#244964" height="2" width="4.7" x="65.8" y="136.8"/><rect fill="#244964" height="2" width="4.7" x="65.8" y="141.7"/><rect fill="#244964" height="2" width="4.7" x="65.8" y="146.6"/><rect fill="#244964" height="2" width="4.7" x="72.4" y="122.2"/><rect fill="#244964" height="2" width="4.7" x="72.4" y="127.1"/><rect fill="#244964" height="2" width="4.7" x="72.4" y="131.9"/><rect fill="#244964" height="2" width="4.7" x="72.4" y="136.8"/><rect fill="#244964" height="2" width="4.7" x="72.4" y="141.7"/><rect fill="#244964" height="2" width="4.7" x="72.4" y="146.6"/><rect fill="#244964" height="2" width="4.7" x="102.9" y="122.2"/><rect fill="#244964" height="2" width="4.7" x="102.9" y="127.1"/><rect fill="#244964" height="2" width="4.7" x="102.9" y="131.9"/><rect fill="#244964" height="2" width="4.7" x="102.9" y="136.8"/><rect fill="#244964" height="2" width="4.7" x="102.9" y="141.7"/><rect fill="#244964" height="2" width="4.7" x="102.9" y="146.6"/><rect fill="#244964" height="2" width="4.7" x="109.5" y="122.2"/><rect fill="#244964" height="2" width="4.7" x="109.5" y="127.1"/><rect fill="#244964" height="2" width="4.7" x="109.5" y="131.9"/><rect fill="#244964" height="2" width="4.7" x="109.5" y="136.8"/><rect fill="#244964" height="2" width="4.7" x="109.5" y="141.7"/><rect fill="#244964" height="2" width="4.7" x="109.5" y="146.6"/></g></svg>